{
  "accessors": [
    {
      "bufferView": 2,
      "componentType": 5126,
      "count": 838,
      "max": [
        0.9848077893257141,
        1.2405385971069336,
        10.611092567443848
      ],
      "min": [
        -0.9848077297210693,
        -1.1492120027542114,
        -7.816372871398926
      ],
      "type": "VEC3"
    },
    {
      "bufferView": 2,
      "byteOffset": 10056,
      "componentType": 5126,
      "count": 838,
      "max": [
        0.9994423985481262,
        0.9993982315063477,
        0.9868271350860596
      ],
      "min": [
        -0.9981590509414673,
        -0.9992673993110657,
        -0.9939424991607666
      ],
      "type": "VEC3"
    },
    {
      "bufferView": 3,
      "componentType": 5126,
      "count": 838,
      "max": [
        0.9999985098838806,
        0.9999753832817078,
        0.9706563353538513,
        1.0
      ],
      "min": [
        -0.9993547797203064,
        -0.9999005198478699,
        -0.9787845611572266,
        -1.0
      ],
      "type": "VEC4"
    },
    {
      "bufferView": 1,
      "componentType": 5126,
      "count": 838,
      "max": [
        0.9540926218032837,
        0.9809661507606506
      ],
      "min": [
        0.019033929333090782,
        0.019033903256058693
      ],
      "type": "VEC2"
    },
    {
      "bufferView": 1,
      "byteOffset": 6704,
      "componentType": 5126,
      "count": 838,
      "max": [
        0.9540926218032837,
        0.9809661507606506
      ],
      "min": [
        0.019033929333090782,
        0.019033903256058693
      ],
      "type": "VEC2"
    },
    {
      "bufferView": 1,
      "byteOffset": 13408,
      "componentType": 5126,
      "count": 838,
      "max": [
        0.9540926218032837,
        0.9809661507606506
      ],
      "min": [
        0.019033929333090782,
        0.019033903256058693
      ],
      "type": "VEC2"
    },
    {
      "bufferView": 0,
      "componentType": 5125,
      "count": 2742,
      "type": "SCALAR"
    }
  ],
  "asset": {
    "extras": {
      "author": "Tryc (https://sketchfab.com/Tryc)",
      "license": "SKETCHFAB Standard (https://sketchfab.com/licenses)",
      "source": "https://sketchfab.com/3d-models/carrot-free-dc849f7598b4451e8868d4414473bec9",
      "title": "carrot (free)"
    },
    "generator": "Sketchfab-16.28.0",
    "version": "2.0"
  },
  "bufferViews": [
    {
      "buffer": 0,
      "byteLength": 10968,
      "name": "floatBufferViews",
      "target": 34963
    },
    {
      "buffer": 0,
      "byteLength": 20112,
      "byteOffset": 10968,
      "byteStride": 8,
      "name": "floatBufferViews",
      "target": 34962
    },
    {
      "buffer": 0,
      "byteLength": 20112,
      "byteOffset": 31080,
      "byteStride": 12,
      "name": "floatBufferViews",
      "target": 34962
    },
    {
      "buffer": 0,
      "byteLength": 13408,
      "byteOffset": 51192,
      "byteStride": 16,
      "name": "floatBufferViews",
      "target": 34962
    }
  ],
  "buffers": [
    {
      "byteLength": 64600,
      "uri": "scene.bin"
    }
  ],
  "images": [
    {
      "uri": "textures/Material_baseColor.png"
    },
    {
      "uri": "textures/Material_metallicRoughness.png"
    },
    {
      "uri": "textures/Material_normal.png"
    }
  ],
  "materials": [
    {
      "doubleSided": true,
      "name": "Material",
      "normalTexture": {
        "index": 2
      },
      "pbrMetallicRoughness": {
        "baseColorTexture": {
          "index": 0
        },
        "metallicFactor": 0.0,
        "metallicRoughnessTexture": {
          "index": 1
        }
      }
    }
  ],
  "meshes": [
    {
      "name": "Cylinder_Material_0",
      "primitives": [
        {
          "attributes": {
            "NORMAL": 1,
            "POSITION": 0,
            "TANGENT": 2,
            "TEXCOORD_0": 3,
            "TEXCOORD_1": 4,
            "TEXCOORD_2": 5
          },
          "indices": 6,
          "material": 0,
          "mode": 4
        }
      ]
    }
  ],
  "nodes": [
    {
      "children": [
        1
      ],
      "matrix": [
        1.0,
        0.0,
        0.0,
        0.0,
        0.0,
        2.220446049250313e-16,
        -1.0,
        0.0,
        0.0,
        1.0,
        2.220446049250313e-16,
        0.0,
        0.0,
        0.0,
        0.0,
        1.0
      ],
      "name": "Sketchfab_model"
    },
    {
      "children": [
        2
      ],
      "matrix": [
        0.009999999776482582,
        0.0,
        0.0,
        0.0,
        0.0,
        0.0,
        0.009999999776482582,
        0.0,
        0.0,
        -0.009999999776482582,
        0.0,
        0.0,
        0.0,
        0.0,
        0.0,
        1.0
      ],
      "name": "carrot.fbx"
    },
    {
      "children": [
        3
      ],
      "name": "RootNode"
    },
    {
      "children": [
        4
      ],
      "matrix": [
        100.0,
        0.0,
        0.0,
        0.0,
        0.0,
        -1.629206793918314e-05,
        -99.99999999999868,
        0.0,
        0.0,
        99.99999999999868,
        -1.629206793918314e-05,
        0.0,
        0.0,
        0.0,
        0.0,
        1.0
      ],
      "name": "Cylinder"
    },
    {
      "mesh": 0,
      "name": "Cylinder_Material_0"
    }
  ],
  "samplers": [
    {
      "magFilter": 9729,
      "minFilter": 9987,
      "wrapS": 10497,
      "wrapT": 10497
    }
  ],
  "scene": 0,
  "scenes": [
    {
      "name": "Sketchfab_Scene",
      "nodes": [
        0
      ]
    }
  ],
  "textures": [
    {
      "sampler": 0,
      "source": 0
    },
    {
      "sampler": 0,
      "source": 1
    },
    {
      "sampler": 0,
      "source": 2
    }
  ]
}
