{
  "accessors": [
    {
      "bufferView": 2,
      "componentType": 5126,
      "count": 256,
      "max": [
        3.787470817565918,
        29.387649536132813,
        1.0081613063812256
      ],
      "min": [
        -3.7874741554260254,
        -29.387643814086914,
        -1.0081602334976196
      ],
      "type": "VEC3"
    },
    {
      "bufferView": 2,
      "byteOffset": 3072,
      "componentType": 5126,
      "count": 256,
      "max": [
        0.9999070763587952,
        0.9902448654174805,
        0.9999806880950928
      ],
      "min": [
        -1.0,
        -0.9968801736831665,
        -0.9999988675117493
      ],
      "type": "VEC3"
    },
    {
      "bufferView": 3,
      "componentType": 5126,
      "count": 256,
      "max": [
        0.9968023300170898,
        0.9999988079071045,
        0.999989926815033,
        1.0
      ],
      "min": [
        -0.9657397270202637,
        -0.9999302625656128,
        -0.9682480692863464,
        1.0
      ],
      "type": "VEC4"
    },
    {
      "bufferView": 1,
      "componentType": 5126,
      "count": 256,
      "max": [
        0.99560546875,
        0.9887161254882813
      ],
      "min": [
        0.005458831787109375,
        0.0078125
      ],
      "type": "VEC2"
    },
    {
      "bufferView": 1,
      "byteOffset": 2048,
      "componentType": 5126,
      "count": 256,
      "max": [
        0.99560546875,
        0.9887161254882813
      ],
      "min": [
        0.005458831787109375,
        0.0078125
      ],
      "type": "VEC2"
    },
    {
      "bufferView": 1,
      "byteOffset": 4096,
      "componentType": 5126,
      "count": 256,
      "max": [
        0.99560546875,
        0.9887161254882813
      ],
      "min": [
        0.005458831787109375,
        0.0078125
      ],
      "type": "VEC2"
    },
    {
      "bufferView": 1,
      "byteOffset": 6144,
      "componentType": 5126,
      "count": 256,
      "max": [
        0.99560546875,
        0.9887161254882813
      ],
      "min": [
        0.005458831787109375,
        0.0078125
      ],
      "type": "VEC2"
    },
    {
      "bufferView": 1,
      "byteOffset": 8192,
      "componentType": 5126,
      "count": 256,
      "max": [
        0.99560546875,
        0.9887161254882813
      ],
      "min": [
        0.005458831787109375,
        0.0078125
      ],
      "type": "VEC2"
    },
    {
      "bufferView": 0,
      "componentType": 5125,
      "count": 834,
      "type": "SCALAR"
    }
  ],
  "asset": {
    "extras": {
      "author": "MaX3Dd (https://sketchfab.com/MaX3Dd)",
      "license": "SKETCHFAB Standard (https://sketchfab.com/licenses)",
      "source": "https://sketchfab.com/3d-models/knife-low-poly-b864f3bbc333401d84dcadb94027d31d",
      "title": "Knife Low-poly"
    },
    "generator": "Sketchfab-15.50.0",
    "version": "2.0"
  },
  "bufferViews": [
    {
      "buffer": 0,
      "byteLength": 3336,
      "name": "floatBufferViews",
      "target": 34963
    },
    {
      "buffer": 0,
      "byteLength": 10240,
      "byteOffset": 3336,
      "byteStride": 8,
      "name": "floatBufferViews",
      "target": 34962
    },
    {
      "buffer": 0,
      "byteLength": 6144,
      "byteOffset": 13576,
      "byteStride": 12,
      "name": "floatBufferViews",
      "target": 34962
    },
    {
      "buffer": 0,
      "byteLength": 4096,
      "byteOffset": 19720,
      "byteStride": 16,
      "name": "floatBufferViews",
      "target": 34962
    }
  ],
  "buffers": [
    {
      "byteLength": 23816,
      "uri": "scene.bin"
    }
  ],
  "images": [
    {
      "uri": "textures/Knife_baseColor.png"
    },
    {
      "uri": "textures/Knife_metallicRoughness.png"
    },
    {
      "uri": "textures/Knife_normal.png"
    }
  ],
  "materials": [
    {
      "doubleSided": true,
      "name": "Knife",
      "normalTexture": {
        "index": 2
      },
      "occlusionTexture": {
        "index": 1
      },
      "pbrMetallicRoughness": {
        "baseColorTexture": {
          "index": 0
        },
        "metallicRoughnessTexture": {
          "index": 1
        }
      }
    }
  ],
  "meshes": [
    {
      "name": "Knife_Knife_0",
      "primitives": [
        {
          "attributes": {
            "NORMAL": 1,
            "POSITION": 0,
            "TANGENT": 2,
            "TEXCOORD_0": 3,
            "TEXCOORD_1": 4,
            "TEXCOORD_2": 5,
            "TEXCOORD_3": 6,
            "TEXCOORD_4": 7
          },
          "indices": 8,
          "material": 0,
          "mode": 4
        }
      ]
    }
  ],
  "nodes": [
    {
      "children": [
        1
      ],
      "matrix": [
        1.0,
        0.0,
        0.0,
        0.0,
        0.0,
        2.220446049250313e-16,
        -1.0,
        0.0,
        0.0,
        1.0,
        2.220446049250313e-16,
        0.0,
        0.0,
        0.0,
        0.0,
        1.0
      ],
      "name": "Sketchfab_model"
    },
    {
      "children": [
        2
      ],
      "matrix": [
        0.009999999776482582,
        0.0,
        0.0,
        0.0,
        0.0,
        0.0,
        0.009999999776482582,
        0.0,
        0.0,
        -0.009999999776482582,
        0.0,
        0.0,
        0.0,
        0.0,
        0.0,
        1.0
      ],
      "name": "Knife.fbx"
    },
    {
      "children": [
        3
      ],
      "name": "RootNode"
    },
    {
      "children": [
        4
      ],
      "matrix": [
        1.0,
        0.0,
        0.0,
        0.0,
        0.0,
        2.220446049250313e-16,
        -1.0,
        0.0,
        0.0,
        1.0,
        2.220446049250313e-16,
        0.0,
        0.0,
        1.041724681854248,
        9.5367431640625e-07,
        1.0
      ],
      "name": "Knife"
    },
    {
      "mesh": 0,
      "name": "Knife_Knife_0"
    }
  ],
  "samplers": [
    {
      "magFilter": 9729,
      "minFilter": 9987,
      "wrapS": 10497,
      "wrapT": 10497
    }
  ],
  "scene": 0,
  "scenes": [
    {
      "name": "Sketchfab_Scene",
      "nodes": [
        0
      ]
    }
  ],
  "textures": [
    {
      "sampler": 0,
      "source": 0
    },
    {
      "sampler": 0,
      "source": 1
    },
    {
      "sampler": 0,
      "source": 2
    }
  ]
}
