{
    "asset" : {
        "generator" : "Khronos glTF Blender I/O v3.4.50",
        "version" : "2.0"
    },
    "scene" : 0,
    "scenes" : [
        {
            "name" : "Scene",
            "nodes" : [
                1
            ]
        }
    ],
    "nodes" : [
        {
            "mesh" : 0,
            "name" : "bro_body"
        },
        {
            "children" : [
                0
            ],
            "name" : "broccoli_grp",
            "scale" : [
                100,
                100,
                100
            ]
        }
    ],
    "materials" : [
        {
            "doubleSided" : true,
            "name" : "brobody_mat.001",
            "normalTexture" : {
                "index" : 0
            },
            "occlusionTexture" : {
                "index" : 1
            },
            "pbrMetallicRoughness" : {
                "baseColorTexture" : {
                    "index" : 2
                },
                "metallicRoughnessTexture" : {
                    "index" : 1
                }
            }
        }
    ],
    "meshes" : [
        {
            "name" : "Mesh",
            "primitives" : [
                {
                    "attributes" : {
                        "POSITION" : 0,
                        "TEXCOORD_0" : 1,
                        "NORMAL" : 2
                    },
                    "indices" : 3,
                    "material" : 0
                }
            ]
        }
    ],
    "textures" : [
        {
            "sampler" : 0,
            "source" : 0
        },
        {
            "sampler" : 0,
            "source" : 1
        },
        {
            "sampler" : 0,
            "source" : 2
        }
    ],
    "images" : [
        {
            "mimeType" : "image/png",
            "name" : "broccoli_brobody_Mat_Normal",
            "uri" : "broccoli_brobody_Mat_Normal.png"
        },
        {
            "mimeType" : "image/png",
            "name" : "broccoli_brobody_Mat_AO-broccoli_brobody_Mat_Roughness-broccoli_brobody_Mat_Metallic",
            "uri" : "broccoli_brobody_Mat_AO-broccoli_brobody_Mat_Roughness-broccoli_brobody_Mat_Metallic.png"
        },
        {
            "mimeType" : "image/png",
            "name" : "broccoli_brobody_Mat_BaseColor",
            "uri" : "broccoli_brobody_Mat_BaseColor.png"
        }
    ],
    "accessors" : [
        {
            "bufferView" : 0,
            "componentType" : 5126,
            "count" : 20501,
            "max" : [
                0.09248413890600204,
                0.19744502007961273,
                0.09180945158004761
            ],
            "min" : [
                -0.09248413890600204,
                0,
                -0.09180945158004761
            ],
            "type" : "VEC3"
        },
        {
            "bufferView" : 1,
            "componentType" : 5126,
            "count" : 20501,
            "type" : "VEC2"
        },
        {
            "bufferView" : 2,
            "componentType" : 5126,
            "count" : 20501,
            "type" : "VEC3"
        },
        {
            "bufferView" : 3,
            "componentType" : 5123,
            "count" : 109470,
            "type" : "SCALAR"
        }
    ],
    "bufferViews" : [
        {
            "buffer" : 0,
            "byteLength" : 246012,
            "byteOffset" : 0,
            "target" : 34962
        },
        {
            "buffer" : 0,
            "byteLength" : 164008,
            "byteOffset" : 246012,
            "target" : 34962
        },
        {
            "buffer" : 0,
            "byteLength" : 246012,
            "byteOffset" : 410020,
            "target" : 34962
        },
        {
            "buffer" : 0,
            "byteLength" : 218940,
            "byteOffset" : 656032,
            "target" : 34963
        }
    ],
    "samplers" : [
        {
            "magFilter" : 9729,
            "minFilter" : 9987
        }
    ],
    "buffers" : [
        {
            "byteLength" : 874972,
            "uri" : "broccoli_v3.bin"
        }
    ]
}
