{
  "accessors": [
    {
      "bufferView": 2,
      "componentType": 5126,
      "count": 1700,
      "max": [
        0.43148890137672424,
        0.9976711273193359,
        0.8524696826934814
      ],
      "min": [
        -0.43148890137672424,
        -0.9976711273193359,
        -0.3446091413497925
      ],
      "type": "VEC3"
    },
    {
      "bufferView": 2,
      "byteOffset": 20400,
      "componentType": 5126,
      "count": 1700,
      "max": [
        0.9983155727386475,
        0.9987696409225464,
        0.9847679138183594
      ],
      "min": [
        -0.9983155727386475,
        -0.9984971284866333,
        -0.9825743436813354
      ],
      "type": "VEC3"
    },
    {
      "bufferView": 3,
      "componentType": 5126,
      "count": 1700,
      "max": [
        0.9999987483024597,
        0.9999987483024597,
        0.9999995827674866,
        1.0
      ],
      "min": [
        -0.9993973970413208,
        -0.9999973177909851,
        -0.9999762177467346,
        -1.0
      ],
      "type": "VEC4"
    },
    {
      "bufferView": 1,
      "componentType": 5126,
      "count": 1700,
      "max": [
        0.9885761141777039,
        0.9999004006385803
      ],
      "min": [
        9.941300959326327e-05,
        9.949618834070861e-05
      ],
      "type": "VEC2"
    },
    {
      "bufferView": 1,
      "byteOffset": 13600,
      "componentType": 5126,
      "count": 1700,
      "max": [
        0.9885761141777039,
        0.9999004006385803
      ],
      "min": [
        9.941300959326327e-05,
        9.949618834070861e-05
      ],
      "type": "VEC2"
    },
    {
      "bufferView": 1,
      "byteOffset": 27200,
      "componentType": 5126,
      "count": 1700,
      "max": [
        0.9885761141777039,
        0.9999004006385803
      ],
      "min": [
        9.941300959326327e-05,
        9.949618834070861e-05
      ],
      "type": "VEC2"
    },
    {
      "bufferView": 0,
      "componentType": 5125,
      "count": 4104,
      "type": "SCALAR"
    }
  ],
  "asset": {
    "extras": {
      "author": "RPSebb (https://sketchfab.com/RPSebb)",
      "license": "SKETCHFAB Standard (https://sketchfab.com/licenses)",
      "source": "https://sketchfab.com/3d-models/chocolate-cake-7a1c5357e44b4c63993d7842b188047a",
      "title": "Chocolate Cake"
    },
    "generator": "Sketchfab-16.53.0",
    "version": "2.0"
  },
  "bufferViews": [
    {
      "buffer": 0,
      "byteLength": 16416,
      "name": "floatBufferViews",
      "target": 34963
    },
    {
      "buffer": 0,
      "byteLength": 40800,
      "byteOffset": 16416,
      "byteStride": 8,
      "name": "floatBufferViews",
      "target": 34962
    },
    {
      "buffer": 0,
      "byteLength": 40800,
      "byteOffset": 57216,
      "byteStride": 12,
      "name": "floatBufferViews",
      "target": 34962
    },
    {
      "buffer": 0,
      "byteLength": 27200,
      "byteOffset": 98016,
      "byteStride": 16,
      "name": "floatBufferViews",
      "target": 34962
    }
  ],
  "buffers": [
    {
      "byteLength": 125216,
      "uri": "scene.bin"
    }
  ],
  "images": [
    {
      "uri": "textures/Cake_Baked_baseColor.jpeg"
    },
    {
      "uri": "textures/Cake_Baked_metallicRoughness.png"
    },
    {
      "uri": "textures/Cake_Baked_normal.jpeg"
    }
  ],
  "materials": [
    {
      "name": "Cake_Baked",
      "normalTexture": {
        "index": 2
      },
      "pbrMetallicRoughness": {
        "baseColorTexture": {
          "index": 0
        },
        "metallicFactor": 0.0,
        "metallicRoughnessTexture": {
          "index": 1
        }
      }
    }
  ],
  "meshes": [
    {
      "name": "Cake_Cake Baked_0",
      "primitives": [
        {
          "attributes": {
            "NORMAL": 1,
            "POSITION": 0,
            "TANGENT": 2,
            "TEXCOORD_0": 3,
            "TEXCOORD_1": 4,
            "TEXCOORD_2": 5
          },
          "indices": 6,
          "material": 0,
          "mode": 4
        }
      ]
    }
  ],
  "nodes": [
    {
      "children": [
        1
      ],
      "matrix": [
        0.08058801293373108,
        0.0,
        0.0,
        0.0,
        0.0,
        1.789413349356363e-17,
        -0.08058801293373108,
        0.0,
        0.0,
        0.08058801293373108,
        1.789413349356363e-17,
        0.0,
        0.0,
        0.0,
        0.0,
        1.0
      ],
      "name": "Sketchfab_model"
    },
    {
      "children": [
        2
      ],
      "matrix": [
        1.0,
        0.0,
        0.0,
        0.0,
        0.0,
        0.0,
        1.0,
        0.0,
        0.0,
        -1.0,
        0.0,
        0.0,
        0.0,
        0.0,
        0.0,
        1.0
      ],
      "name": "3b952dee5fff450188d4874a4e5acc88.fbx"
    },
    {
      "children": [
        3
      ],
      "name": "RootNode"
    },
    {
      "children": [
        4
      ],
      "matrix": [
        1.0,
        0.0,
        0.0,
        0.0,
        0.0,
        -1.6292067939183141e-07,
        -0.9999999999999868,
        0.0,
        0.0,
        0.9999999999999868,
        -1.6292067939183141e-07,
        0.0,
        0.0,
        0.0,
        0.0,
        1.0
      ],
      "name": "Cake"
    },
    {
      "mesh": 0,
      "name": "Cake_Cake Baked_0"
    }
  ],
  "samplers": [
    {
      "magFilter": 9729,
      "minFilter": 9987,
      "wrapS": 10497,
      "wrapT": 10497
    }
  ],
  "scene": 0,
  "scenes": [
    {
      "name": "Sketchfab_Scene",
      "nodes": [
        0
      ]
    }
  ],
  "textures": [
    {
      "sampler": 0,
      "source": 0
    },
    {
      "sampler": 0,
      "source": 1
    },
    {
      "sampler": 0,
      "source": 2
    }
  ]
}
