{"accessors" : [{"bufferView" : 0, "byteOffset" : 0, "componentType" : 5123, "count" : 5424, "type" : "SCALAR", "max" : [1506], "min" : [0]}, {"bufferView" : 1, "byteOffset" : 0, "componentType" : 5126, "count" : 1507, "type" : "VEC3", "max" : [14.292245864868164, 40.057254791259766, 14.292245864868164], "min" : [-14.292245864868164, -100.79344177246094, -14.292245864868164], "name" : "POSITION"}, {"bufferView" : 1, "byteOffset" : 12, "componentType" : 5126, "count" : 1507, "type" : "VEC3", "max" : [0.9990924000740051, 1.0000044107437134, 1.0000044107437134], "min" : [-0.9990924000740051, -1.0000044107437134, -1.0000044107437134], "name" : "NORMAL"}, {"bufferView" : 1, "byteOffset" : 24, "componentType" : 5126, "count" : 1507, "type" : "VEC2", "max" : [0.9929274320602417, 0.99609375], "min" : [0.00390625, 0.006002306938171387], "name" : "TEXCOORD_0"}], "asset" : {"generator" : "Aspose.3D 25.2.0", "version" : "2.0"}, "buffers" : [{"uri" : "data:application/octet-stream;base64,", "byteLength" : 59080}], "bufferViews" : [{"buffer" : 0, "byteOffset" : 0, "byteLength" : 10848, "target" : 34963}, {"buffer" : 0, "byteOffset" : 10852, "byteLength" : 48224, "byteStride" : 32, "target" : 34962}], "meshes" : [{"primitives" : [{"attributes" : {"POSITION" : 1, "NORMAL" : 2, "TEXCOORD_0" : 3}, "indices" : 0, "mode" : 4}], "name" : ""}], "nodes" : [{"mesh" : 0, "name" : "shar"}], "scene" : 0, "scenes" : [{"nodes" : [0]}]}