{
  "accessors": [
    {
      "bufferView": 2,
      "componentType": 5126,
      "count": 29423,
      "max": [
        0.10309915244579315,
        0.18444886803627014,
        0.028917506337165833
      ],
      "min": [
        -0.0852847546339035,
        -0.17226427793502808,
        -0.030269552022218704
      ],
      "type": "VEC3"
    },
    {
      "bufferView": 2,
      "byteOffset": 353076,
      "componentType": 5126,
      "count": 29423,
      "max": [
        0.9997942447662354,
        0.9992223978042603,
        0.9999929666519165
      ],
      "min": [
        -0.9959214329719543,
        -0.9998191595077515,
        -0.9999983906745911
      ],
      "type": "VEC3"
    },
    {
      "bufferView": 1,
      "componentType": 5126,
      "count": 29423,
      "max": [
        0.9858983755111694,
        0.9970703125
      ],
      "min": [
        0.0029296875,
        0.0029296875
      ],
      "type": "VEC2"
    },
    {
      "bufferView": 0,
      "componentType": 5125,
      "count": 166188,
      "type": "SCALAR"
    }
  ],
  "asset": {
    "extras": {
      "author": "a-python-script (https://sketchfab.com/a-python-script)",
      "license": "SKETCHFAB Standard (https://sketchfab.com/licenses)",
      "source": "https://sketchfab.com/3d-models/banana-3d-scanned-151daf50278f437a9c7259627ac0613b",
      "title": "Banana 3D Scanned"
    },
    "generator": "Sketchfab-15.55.0",
    "version": "2.0"
  },
  "bufferViews": [
    {
      "buffer": 0,
      "byteLength": 664752,
      "name": "floatBufferViews",
      "target": 34963
    },
    {
      "buffer": 0,
      "byteLength": 235384,
      "byteOffset": 664752,
      "byteStride": 8,
      "name": "floatBufferViews",
      "target": 34962
    },
    {
      "buffer": 0,
      "byteLength": 706152,
      "byteOffset": 900136,
      "byteStride": 12,
      "name": "floatBufferViews",
      "target": 34962
    }
  ],
  "buffers": [
    {
      "byteLength": 1606288,
      "uri": "scene.bin"
    }
  ],
  "extensionsUsed": [
    "KHR_materials_unlit"
  ],
  "images": [
    {
      "uri": "textures/banana_baseColor.png"
    }
  ],
  "materials": [
    {
      "doubleSided": true,
      "extensions": {
        "KHR_materials_unlit": {}
      },
      "name": "banana",
      "pbrMetallicRoughness": {
        "baseColorTexture": {
          "index": 0
        },
        "metallicFactor": 0.0
      }
    }
  ],
  "meshes": [
    {
      "name": "Object_0",
      "primitives": [
        {
          "attributes": {
            "NORMAL": 1,
            "POSITION": 0,
            "TEXCOORD_0": 2
          },
          "indices": 3,
          "material": 0,
          "mode": 4
        }
      ]
    }
  ],
  "nodes": [
    {
      "children": [
        1
      ],
      "matrix": [
        5.8411478996276855,
        0.0,
        0.0,
        0.0,
        0.0,
        5.841107164960846,
        0.021780785015203162,
        0.0,
        0.0,
        -0.021780785015203162,
        5.841107164960846,
        0.0,
        0.0,
        0.0,
        0.0,
        1.0
      ],
      "name": "Sketchfab_model"
    },
    {
      "children": [
        2
      ],
      "name": "root"
    },
    {
      "children": [
        3
      ],
      "matrix": [
        1.0,
        0.0,
        0.0,
        0.0,
        0.0,
        2.220446049250313e-16,
        1.0,
        0.0,
        0.0,
        -1.0,
        2.220446049250313e-16,
        0.0,
        0.0,
        0.0,
        0.0,
        1.0
      ],
      "name": "GLTF_SceneRootNode"
    },
    {
      "children": [
        4
      ],
      "name": "banana_0"
    },
    {
      "mesh": 0,
      "name": "Object_4"
    }
  ],
  "samplers": [
    {
      "magFilter": 9729,
      "minFilter": 9987,
      "wrapS": 10497,
      "wrapT": 10497
    }
  ],
  "scene": 0,
  "scenes": [
    {
      "name": "Sketchfab_Scene",
      "nodes": [
        0
      ]
    }
  ],
  "textures": [
    {
      "sampler": 0,
      "source": 0
    }
  ]
}
