{"accessors" : [{"bufferView" : 0, "byteOffset" : 0, "componentType" : 5123, "count" : 672, "type" : "SCALAR", "max" : [530], "min" : [0]}, {"bufferView" : 1, "byteOffset" : 0, "componentType" : 5126, "count" : 531, "type" : "VEC3", "max" : [7.803662300109863, 2.541131019592285, 5.310006141662598], "min" : [-7.803662300109863, -7.450580596923828E-09, -7.799940586090088], "name" : "POSITION"}, {"bufferView" : 1, "byteOffset" : 12, "componentType" : 5126, "count" : 531, "type" : "VEC3", "max" : [0.999951183795929, 1.0000044107437134, 1.0000044107437134], "min" : [-0.999951183795929, -1.0000044107437134, -0.9993990659713745], "name" : "NORMAL"}, {"bufferView" : 1, "byteOffset" : 24, "componentType" : 5126, "count" : 531, "type" : "VEC2", "max" : [0.9950360059738159, 0.8161219954490662], "min" : [0.012725000269711018, 0.04216897487640381], "name" : "TEXCOORD_0"}], "asset" : {"generator" : "Aspose.3D 25.2.0", "version" : "2.0"}, "buffers" : [{"uri" : "data:application/octet-stream;base64,", "byteLength" : 18344}], "bufferViews" : [{"buffer" : 0, "byteOffset" : 0, "byteLength" : 1344, "target" : 34963}, {"buffer" : 0, "byteOffset" : 1348, "byteLength" : 16992, "byteStride" : 32, "target" : 34962}], "materials" : [{"name" : "lambert1", "pbrMetallicRoughness" : {"baseColorFactor" : [0.5, 0.5, 0.5, 1], "metallicFactor" : 1, "roughnessFactor" : 1}, "emissiveFactor" : [0, 0, 0], "alphaMode" : "OPAQUE", "doubleSided" : false}], "meshes" : [{"primitives" : [{"attributes" : {"POSITION" : 1, "NORMAL" : 2, "TEXCOORD_0" : 3}, "indices" : 0, "material" : 0, "mode" : 4}], "name" : ""}], "nodes" : [{"mesh" : 0, "name" : "PoundCake"}], "scene" : 0, "scenes" : [{"nodes" : [0]}]}