{"accessors" : [{"bufferView" : 0, "byteOffset" : 0, "componentType" : 5123, "count" : 756, "type" : "SCALAR", "max" : [201], "min" : [0]}, {"bufferView" : 1, "byteOffset" : 0, "componentType" : 5126, "count" : 202, "type" : "VEC3", "max" : [5.0070648193359375, 0.4814159870147705, 4.9521331787109375], "min" : [-5.0070648193359375, 0.007501999847590923, -4.952126979827881], "name" : "POSITION"}, {"bufferView" : 1, "byteOffset" : 12, "componentType" : 5126, "count" : 202, "type" : "VEC3", "max" : [0.9856317043304443, 0.9999694228172302, 0.9858205914497375], "min" : [-0.9856317043304443, -1.0000044107437134, -1.0000044107437134], "name" : "NORMAL"}, {"bufferView" : 1, "byteOffset" : 24, "componentType" : 5126, "count" : 202, "type" : "VEC2", "max" : [0.9866970181465149, 0.9852250218391418], "min" : [0.010319000110030174, 0.008783996105194092], "name" : "TEXCOORD_0"}], "asset" : {"generator" : "Aspose.3D 25.2.0", "version" : "2.0"}, "buffers" : [{"uri" : "data:application/octet-stream;base64,", "byteLength" : 7984}], "bufferViews" : [{"buffer" : 0, "byteOffset" : 0, "byteLength" : 1512, "target" : 34963}, {"buffer" : 0, "byteOffset" : 1516, "byteLength" : 6464, "byteStride" : 32, "target" : 34962}], "materials" : [{"name" : "blinn1", "pbrMetallicRoughness" : {"baseColorFactor" : [0.5, 0.5, 0.5, 1], "metallicFactor" : 1, "roughnessFactor" : 1}, "emissiveFactor" : [0, 0, 0], "alphaMode" : "OPAQUE", "doubleSided" : false}], "meshes" : [{"primitives" : [{"attributes" : {"POSITION" : 1, "NORMAL" : 2, "TEXCOORD_0" : 3}, "indices" : 0, "material" : 0, "mode" : 4}], "name" : ""}], "nodes" : [{"mesh" : 0, "name" : "Oat_Cake:Oat_Cake"}], "scene" : 0, "scenes" : [{"nodes" : [0]}]}