{
  "accessors": [
    {
      "bufferView": 2,
      "componentType": 5126,
      "count": 1912,
      "max": [
        0.11421820521354675,
        0.11421820521354675,
        0.3560802936553955
      ],
      "min": [
        -0.11421820521354675,
        -0.11421818286180496,
        -0.03129745274782181
      ],
      "type": "VEC3"
    },
    {
      "bufferView": 2,
      "byteOffset": 22944,
      "componentType": 5126,
      "count": 1912,
      "max": [
        0.9911434054374695,
        0.99615877866745,
        1.0
      ],
      "min": [
        -0.991143524646759,
        -0.9961580634117126,
        -1.0
      ],
      "type": "VEC3"
    },
    {
      "bufferView": 3,
      "componentType": 5126,
      "count": 1912,
      "max": [
        0.9969945549964905,
        0.9995527863502502,
        0.9999935030937195,
        1.0
      ],
      "min": [
        -0.994756817817688,
        -0.9972469806671143,
        -0.994976818561554,
        1.0
      ],
      "type": "VEC4"
    },
    {
      "bufferView": 1,
      "componentType": 5126,
      "count": 1912,
      "max": [
        0.9976077079772949,
        0.9997670650482178
      ],
      "min": [
        0.0016599517548456788,
        0.0005206312634982169
      ],
      "type": "VEC2"
    },
    {
      "bufferView": 0,
      "componentType": 5125,
      "count": 8760,
      "type": "SCALAR"
    }
  ],
  "asset": {
    "extras": {
      "author": "devmate_ (https://sketchfab.com/devmate_)",
      "license": "SKETCHFAB Standard (https://sketchfab.com/licenses)",
      "source": "https://sketchfab.com/3d-models/ice-cream-7641286d8a104573b78ca22bda3c0458",
      "title": "Ice cream"
    },
    "generator": "Sketchfab-15.55.0",
    "version": "2.0"
  },
  "bufferViews": [
    {
      "buffer": 0,
      "byteLength": 35040,
      "name": "floatBufferViews",
      "target": 34963
    },
    {
      "buffer": 0,
      "byteLength": 15296,
      "byteOffset": 35040,
      "byteStride": 8,
      "name": "floatBufferViews",
      "target": 34962
    },
    {
      "buffer": 0,
      "byteLength": 45888,
      "byteOffset": 50336,
      "byteStride": 12,
      "name": "floatBufferViews",
      "target": 34962
    },
    {
      "buffer": 0,
      "byteLength": 30592,
      "byteOffset": 96224,
      "byteStride": 16,
      "name": "floatBufferViews",
      "target": 34962
    }
  ],
  "buffers": [
    {
      "byteLength": 126816,
      "uri": "scene.bin"
    }
  ],
  "images": [
    {
      "uri": "textures/ice_cream_baseColor.jpeg"
    },
    {
      "uri": "textures/ice_cream_metallicRoughness.png"
    },
    {
      "uri": "textures/ice_cream_normal.png"
    }
  ],
  "materials": [
    {
      "doubleSided": true,
      "name": "ice_cream",
      "normalTexture": {
        "index": 2
      },
      "pbrMetallicRoughness": {
        "baseColorTexture": {
          "index": 0
        },
        "metallicRoughnessTexture": {
          "index": 1
        }
      }
    }
  ],
  "meshes": [
    {
      "name": "Ice_Cream_ice_cream_0",
      "primitives": [
        {
          "attributes": {
            "NORMAL": 1,
            "POSITION": 0,
            "TANGENT": 2,
            "TEXCOORD_0": 3
          },
          "indices": 4,
          "material": 0,
          "mode": 4
        }
      ]
    }
  ],
  "nodes": [
    {
      "children": [
        1
      ],
      "matrix": [
        1.0,
        0.0,
        0.0,
        0.0,
        0.0,
        2.220446049250313e-16,
        -1.0,
        0.0,
        0.0,
        1.0,
        2.220446049250313e-16,
        0.0,
        0.0,
        0.0,
        0.0,
        1.0
      ],
      "name": "Sketchfab_model"
    },
    {
      "children": [
        2
      ],
      "matrix": [
        1.0,
        0.0,
        0.0,
        0.0,
        0.0,
        0.0,
        1.0,
        0.0,
        0.0,
        -1.0,
        0.0,
        0.0,
        0.0,
        0.0,
        0.0,
        1.0
      ],
      "name": "e5c879b0466a43d684ee744a73fe5a44.fbx"
    },
    {
      "children": [
        3
      ],
      "name": "RootNode"
    },
    {
      "children": [
        4
      ],
      "matrix": [
        1.0,
        0.0,
        0.0,
        0.0,
        0.0,
        -1.6292067939183141e-07,
        -0.9999999999999868,
        0.0,
        0.0,
        0.9999999999999868,
        -1.6292067939183141e-07,
        0.0,
        0.0,
        0.0,
        0.0,
        1.0
      ],
      "name": "Ice_Cream"
    },
    {
      "mesh": 0,
      "name": "Ice_Cream_ice_cream_0"
    }
  ],
  "samplers": [
    {
      "magFilter": 9729,
      "minFilter": 9987,
      "wrapS": 10497,
      "wrapT": 10497
    }
  ],
  "scene": 0,
  "scenes": [
    {
      "name": "Sketchfab_Scene",
      "nodes": [
        0
      ]
    }
  ],
  "textures": [
    {
      "sampler": 0,
      "source": 0
    },
    {
      "sampler": 0,
      "source": 1
    },
    {
      "sampler": 0,
      "source": 2
    }
  ]
}
