{
  "accessors": [
    {
      "bufferView": 2,
      "componentType": 5126,
      "count": 6321,
      "max": [
        1.4981780052185059,
        1.5045069456100464,
        0.5749289989471436
      ],
      "min": [
        -1.4921760559082031,
        -1.4857749938964844,
        -0.6103280186653137
      ],
      "type": "VEC3"
    },
    {
      "bufferView": 2,
      "byteOffset": 75852,
      "componentType": 5126,
      "count": 6321,
      "max": [
        0.9999854564666748,
        1.0,
        0.9999985694885254
      ],
      "min": [
        -0.9999817609786987,
        -0.9999727010726929,
        -0.9999030828475952
      ],
      "type": "VEC3"
    },
    {
      "bufferView": 3,
      "componentType": 5126,
      "count": 6321,
      "max": [
        1.0,
        0.9999997019767761,
        0.25224021077156067,
        1.0
      ],
      "min": [
        -0.9999974370002747,
        -0.999998927116394,
        -0.16296374797821045,
        1.0
      ],
      "type": "VEC4"
    },
    {
      "bufferView": 1,
      "componentType": 5126,
      "count": 6321,
      "max": [
        1.0,
        1.0
      ],
      "min": [
        0.0,
        0.0
      ],
      "type": "VEC2"
    },
    {
      "bufferView": 0,
      "componentType": 5125,
      "count": 36864,
      "type": "SCALAR"
    },
    {
      "bufferView": 2,
      "byteOffset": 151704,
      "componentType": 5126,
      "count": 7968,
      "max": [
        1.5562390089035034,
        1.5562039613723755,
        0.638945996761322
      ],
      "min": [
        -1.550004005432129,
        -1.5409719944000244,
        -0.3271929919719696
      ],
      "type": "VEC3"
    },
    {
      "bufferView": 2,
      "byteOffset": 247320,
      "componentType": 5126,
      "count": 7968,
      "max": [
        0.9978067874908447,
        0.9991064667701721,
        0.9999785423278809
      ],
      "min": [
        -0.9985994100570679,
        -0.9998083710670471,
        -0.9999709129333496
      ],
      "type": "VEC3"
    },
    {
      "bufferView": 1,
      "byteOffset": 50568,
      "componentType": 5126,
      "count": 7968,
      "max": [
        0.9998220205307007,
        0.9338129758834839
      ],
      "min": [
        0.00017800000205170363,
        0.00017800000205170363
      ],
      "type": "VEC2"
    },
    {
      "bufferView": 0,
      "byteOffset": 147456,
      "componentType": 5125,
      "count": 44544,
      "type": "SCALAR"
    }
  ],
  "asset": {
    "extras": {
      "author": "Eros (https://sketchfab.com/erosproject)",
      "license": "SKETCHFAB Standard (https://sketchfab.com/licenses)",
      "source": "https://sketchfab.com/3d-models/donut-8342d067a8f74100b64c1e918c44b8e1",
      "title": "Donut"
    },
    "generator": "Sketchfab-16.21.0",
    "version": "2.0"
  },
  "bufferViews": [
    {
      "buffer": 0,
      "byteLength": 325632,
      "name": "floatBufferViews",
      "target": 34963
    },
    {
      "buffer": 0,
      "byteLength": 114312,
      "byteOffset": 325632,
      "byteStride": 8,
      "name": "floatBufferViews",
      "target": 34962
    },
    {
      "buffer": 0,
      "byteLength": 342936,
      "byteOffset": 439944,
      "byteStride": 12,
      "name": "floatBufferViews",
      "target": 34962
    },
    {
      "buffer": 0,
      "byteLength": 101136,
      "byteOffset": 782880,
      "byteStride": 16,
      "name": "floatBufferViews",
      "target": 34962
    }
  ],
  "buffers": [
    {
      "byteLength": 884016,
      "uri": "scene.bin"
    }
  ],
  "images": [
    {
      "uri": "textures/Donut_baseColor.png"
    },
    {
      "uri": "textures/Donut_normal.png"
    },
    {
      "uri": "textures/Icing_baseColor.png"
    }
  ],
  "materials": [
    {
      "doubleSided": true,
      "name": "Donut",
      "normalTexture": {
        "index": 1
      },
      "pbrMetallicRoughness": {
        "baseColorTexture": {
          "index": 0
        },
        "metallicFactor": 0.0,
        "roughnessFactor": 0.6
      }
    },
    {
      "doubleSided": true,
      "name": "Icing",
      "pbrMetallicRoughness": {
        "baseColorTexture": {
          "index": 2
        },
        "metallicFactor": 0.0,
        "roughnessFactor": 0.40051497269114605
      }
    }
  ],
  "meshes": [
    {
      "name": "Object_0",
      "primitives": [
        {
          "attributes": {
            "NORMAL": 1,
            "POSITION": 0,
            "TANGENT": 2,
            "TEXCOORD_0": 3
          },
          "indices": 4,
          "material": 0,
          "mode": 4
        }
      ]
    },
    {
      "name": "Object_1",
      "primitives": [
        {
          "attributes": {
            "NORMAL": 6,
            "POSITION": 5,
            "TEXCOORD_0": 7
          },
          "indices": 8,
          "material": 1,
          "mode": 4
        }
      ]
    }
  ],
  "nodes": [
    {
      "children": [
        1
      ],
      "matrix": [
        1.0,
        0.0,
        0.0,
        0.0,
        0.0,
        2.220446049250313e-16,
        -1.0,
        0.0,
        0.0,
        1.0,
        2.220446049250313e-16,
        0.0,
        0.0,
        0.0,
        0.0,
        1.0
      ],
      "name": "Sketchfab_model"
    },
    {
      "children": [
        2,
        3
      ],
      "name": "Donut.obj.cleaner.materialmerger.gles"
    },
    {
      "mesh": 0,
      "name": "Object_2"
    },
    {
      "mesh": 1,
      "name": "Object_3"
    }
  ],
  "samplers": [
    {
      "magFilter": 9729,
      "minFilter": 9987,
      "wrapS": 10497,
      "wrapT": 10497
    }
  ],
  "scene": 0,
  "scenes": [
    {
      "name": "Sketchfab_Scene",
      "nodes": [
        0
      ]
    }
  ],
  "textures": [
    {
      "sampler": 0,
      "source": 0
    },
    {
      "sampler": 0,
      "source": 1
    },
    {
      "sampler": 0,
      "source": 2
    }
  ]
}
